<svg xmlns="http://www.w3.org/2000/svg" version="1.1" xmlns:xlink="http://www.w3.org/1999/xlink" xmlns:svgjs="http://svgjs.dev/svgjs" width="1000" height="330" viewBox="0 0 1000 330"><g transform="matrix(1,0,0,1,-0.6060606060606233,-0.4884283566202896)"><svg viewBox="0 0 396 131" data-background-color="#0c1d36" preserveAspectRatio="xMidYMid meet" height="330" width="1000" xmlns="http://www.w3.org/2000/svg" xmlns:xlink="http://www.w3.org/1999/xlink"><defs></defs><g id="tight-bounds" transform="matrix(1,0,0,1,0.2400000000000091,1.8379657929737334)"><svg viewBox="0 0 395.52 128.96281052606167" height="128.96281052606167" width="395.52"><g><svg viewBox="0 0 395.52 128.96281052606167" height="128.96281052606167" width="395.52"><g transform="matrix(1,0,0,1,0,96.72272045625759)"><svg viewBox="0 0 395.52 32.2400900698041" height="32.2400900698041" width="395.52"><g><svg viewBox="0 0 395.52 32.2400900698041" height="32.2400900698041" width="395.52"><g><svg viewBox="0 0 395.52 32.2400900698041" height="32.2400900698041" width="395.52"><g transform="matrix(1,0,0,1,0,0)"><svg width="395.52" viewBox="3.549999952316284 -35.599998474121094 444.07000732421875 36.19999694824219" height="32.2400900698041" data-palette-color="#ff851b"><path d="M8.85 0L3.55 0 3.55-35 15.8-35Q19.9-35 22.6-33.63 25.3-32.25 26.63-29.88 27.95-27.5 27.95-24.5L27.95-24.5Q27.95-21.65 26.68-19.28 25.4-16.9 22.7-15.5 20-14.1 15.8-14.1L15.8-14.1 8.85-14.1 8.85 0ZM8.85-30.65L8.85-18.45 15.55-18.45Q19.3-18.45 20.93-20.08 22.55-21.7 22.55-24.5L22.55-24.5Q22.55-27.4 20.93-29.03 19.3-30.65 15.55-30.65L15.55-30.65 8.85-30.65ZM54.4 0L33.2 0 33.2-35 38.5-35 38.5-4.2 54.4-4.2 54.4 0ZM63.45 0L57.84 0 70.75-35 76.55-35 89.34 0 83.75 0 80.75-8.55 66.45-8.55 63.45 0ZM73.59-28.7L67.95-12.75 79.25-12.75 73.59-28.7ZM99.54 0L94.24 0 94.24-35 99.54-35 117.09-8.65 117.09-35 122.39-35 122.39 0 117.09 0 99.54-26.35 99.54 0ZM134.79 0L129.49 0 129.49-35 134.79-35 134.79-20 148.59-35 155.14-35 142.19-21.05 155.44 0 148.99 0 138.39-17 134.79-13.1 134.79 0ZM177.94 0L172.64 0 172.64-35 177.94-35 177.94-20 194.89-20 194.89-35 200.19-35 200.19 0 194.89 0 194.89-15.65 177.94-15.65 177.94 0ZM221.48 0L216.18 0 216.18-12.9 204.58-35 210.58-35 218.83-18.1 227.03-35 232.98-35 221.48-12.9 221.48 0ZM250.48 0.6L250.48 0.6Q246.73 0.6 243.71-0.88 240.68-2.35 238.91-5.4 237.13-8.45 237.13-13.15L237.13-13.15 237.13-35 242.43-35 242.43-13.1Q242.43-8.5 244.63-6.35 246.83-4.2 250.58-4.2L250.58-4.2Q254.28-4.2 256.48-6.35 258.68-8.5 258.68-13.1L258.68-13.1 258.68-35 263.98-35 263.98-13.15Q263.98-8.45 262.16-5.4 260.33-2.35 257.25-0.88 254.18 0.6 250.48 0.6ZM276.08 0L270.78 0 270.78-35 276.08-35 293.63-8.65 293.63-35 298.93-35 298.93 0 293.63 0 276.08-26.35 276.08 0ZM317.38 0L306.03 0 306.03-35 317.38-35Q323.53-35 327.5-32.85 331.48-30.7 333.4-26.78 335.33-22.85 335.33-17.45L335.33-17.45Q335.33-12.1 333.4-8.18 331.48-4.25 327.5-2.13 323.53 0 317.38 0L317.38 0ZM311.33-30.55L311.33-4.5 317.18-4.5Q321.93-4.5 324.7-6.05 327.48-7.6 328.7-10.5 329.93-13.4 329.93-17.45L329.93-17.45Q329.93-21.5 328.7-24.45 327.48-27.4 324.7-28.98 321.93-30.55 317.18-30.55L317.18-30.55 311.33-30.55ZM357.32 0.6L357.32 0.6Q352.12 0.6 348.22-1.7 344.32-4 342.12-8.08 339.92-12.15 339.92-17.5L339.92-17.5Q339.92-22.85 342.12-26.93 344.32-31 348.22-33.3 352.12-35.6 357.32-35.6L357.32-35.6Q362.52-35.6 366.42-33.3 370.32-31 372.5-26.93 374.67-22.85 374.67-17.5L374.67-17.5Q374.67-12.15 372.5-8.08 370.32-4 366.42-1.7 362.52 0.6 357.32 0.6ZM357.32-4.15L357.32-4.15Q360.92-4.15 363.6-5.75 366.27-7.35 367.77-10.35 369.27-13.35 369.27-17.5L369.27-17.5Q369.27-21.65 367.77-24.65 366.27-27.65 363.6-29.25 360.92-30.85 357.32-30.85L357.32-30.85Q353.72-30.85 351.02-29.25 348.32-27.65 346.85-24.65 345.37-21.65 345.37-17.5L345.37-17.5Q345.37-13.35 346.85-10.35 348.32-7.35 351.02-5.75 353.72-4.15 357.32-4.15ZM385.87 0L380.57 0 380.57-35 385.87-35 403.42-8.65 403.42-35 408.72-35 408.72 0 403.42 0 385.87-26.35 385.87 0ZM431.02 0.6L431.02 0.6Q426.07 0.6 422.37-1.65 418.67-3.9 416.62-7.95 414.57-12 414.57-17.4L414.57-17.4Q414.57-22.75 416.67-26.85 418.77-30.95 422.64-33.27 426.52-35.6 431.82-35.6L431.82-35.6Q437.82-35.6 441.82-32.7 445.82-29.8 447.02-24.7L447.02-24.7 441.02-24.7Q440.22-27.5 437.87-29.1 435.52-30.7 431.82-30.7L431.82-30.7Q426.32-30.7 423.17-27.15 420.02-23.6 420.02-17.35L420.02-17.35Q420.02-11.1 423.12-7.6 426.22-4.1 431.37-4.1L431.37-4.1Q436.57-4.1 439.19-7.05 441.82-10 442.27-14.9L442.27-14.9 432.77-14.9 432.77-19 447.62-19 447.62 0 442.77 0 442.32-5.15Q440.57-2.4 437.92-0.9 435.27 0.6 431.02 0.6Z" opacity="1" transform="matrix(1,0,0,1,0,0)" fill="#ff851b" class="undefined-text-0" data-fill-palette-color="primary" id="text-0"></path></svg></g></svg></g></svg></g></svg></g><g transform="matrix(1,0,0,1,106.8691972754442,0)"><svg viewBox="0 0 181.7816054491116 89.11160895293852" height="89.11160895293852" width="181.7816054491116"><g><svg xmlns="http://www.w3.org/2000/svg" data-name="Layer 1" viewBox="23.0496768951416 33.01686096191406 60.2650146484375 32.393898010253906" x="8" y="0" height="89.11160895293852" width="165.7816054491116" class="icon-icon-0" data-fill-palette-color="accent" id="icon-0"><path d="M77.2 65a0.76 0.76 0 0 1-0.52-0.15 0.42 0.42 0 0 1-0.15-0.34 0.57 0.57 0 0 1 0.19-0.44 0.51 0.51 0 0 1 0.37-0.1 1.09 1.09 0 0 0 0.71-0.14l0.1-0.09a1.66 1.66 0 0 0 0.53-1.41c0-0.16 0-0.31 0-0.45 0-0.93 0.07-1.67-1-2.14a34.13 34.13 0 0 0-4.61-1.36 20.56 20.56 0 0 1-2.59-0.78 11 11 0 0 0-3.91-0.88A6.59 6.59 0 0 1 64 56.26a7.26 7.26 0 0 0-3.27-0.44 21 21 0 0 1-10.63-2.77c-1.84-1.2-4.41-1.59-6.68-1.93-0.94-0.14-1.83-0.28-2.6-0.46l-0.8-0.18c-1.54-0.35-2.31-0.52-3-1.31a0.17 0.17 0 0 1 0.27-0.21c0.56 0.69 1.25 0.85 2.76 1.19l0.79 0.18c0.77 0.18 1.65 0.31 2.58 0.45 2.3 0.35 4.91 0.75 6.81 2 2.48 1.61 7.73 3 10.41 2.71a7.83 7.83 0 0 1 3.41 0.45 6.09 6.09 0 0 0 2.29 0.4 11.72 11.72 0 0 1 4 0.91A20.36 20.36 0 0 0 73 58a36.14 36.14 0 0 1 4.67 1.38c1.24 0.58 1.2 1.54 1.16 2.47 0 0.15 0 0.29 0 0.44a2 2 0 0 1-0.63 1.65 0.38 0.38 0 0 0-0.09 0.09 1.44 1.44 0 0 1-1 0.24 0.17 0.17 0 0 0-0.12 0 0.28 0.28 0 0 0-0.06 0.18 0.1 0.1 0 0 0 0 0.08 0.89 0.89 0 0 0 0.5 0 0.17 0.17 0 1 1 0.06 0.33Z" fill="#39cccc" data-fill-palette-color="accent"></path><path d="M77.75 65.09a0.51 0.51 0 0 1-0.54-0.31 0.27 0.27 0 0 1 0.15-0.33 7.32 7.32 0 0 0 0.73-0.54 0.16 0.16 0 0 1 0.24 0 0.16 0.16 0 0 1 0 0.23c-0.06 0-0.51 0.41-0.73 0.55a0.45 0.45 0 0 0 0.23 0 0.17 0.17 0 1 1 0 0.34Z" fill="#39cccc" data-fill-palette-color="accent"></path><path d="M78.24 65.1h-0.08a0.31 0.31 0 0 1-0.22-0.22 0.49 0.49 0 0 1 0.15-0.43c0.08-0.08 0.56-0.48 0.56-0.48l0.22 0.27-0.56 0.46 0 0.06a1 1 0 0 0 0.24-0.13 0.17 0.17 0 0 1 0.24 0 0.16 0.16 0 0 1 0 0.24A0.83 0.83 0 0 1 78.24 65.1Zm0-0.31Z" fill="#39cccc" data-fill-palette-color="accent"></path><path d="M29.16 40.54c-0.15 0-0.29-0.11-0.42-0.32a0.16 0.16 0 0 1 0.05-0.23A0.18 0.18 0 0 1 29 40c0.08 0.14 0.14 0.16 0.14 0.16a0.28 0.28 0 0 0 0-0.08 1.09 1.09 0 0 0-0.42-1.07c-0.09 0-0.26-0.08-0.35 0s-0.12 0.34-0.12 0.41a0.17 0.17 0 0 1-0.15 0.18 0.17 0.17 0 0 1-0.19-0.16 0.89 0.89 0 0 1 0.27-0.71 0.7 0.7 0 0 1 0.7 0 1.41 1.41 0 0 1 0.58 1.47c0 0.05-0.13 0.29-0.35 0.31Z" fill="#39cccc" data-fill-palette-color="accent"></path><ellipse cx="25.93" cy="42.04" rx="0.17" ry="0.39" transform="translate(-23.45 43.19) rotate(-59.67)" fill="#39cccc" data-fill-palette-color="accent"></ellipse><path d="M30.07 42.18H30a0.16 0.16 0 0 1-0.09-0.22 1 1 0 0 0-0.28-1 0.17 0.17 0 1 1 0.22-0.25 1.25 1.25 0 0 1 0.37 1.37A0.16 0.16 0 0 1 30.07 42.18Z" fill="#39cccc" data-fill-palette-color="accent"></path><path d="M23.39 40.71a0.18 0.18 0 0 1-0.17-0.11 0.18 0.18 0 0 1 0.11-0.22s1.46-0.51 1.76-0.64a1.54 1.54 0 0 1 1.16 0 3.23 3.23 0 0 0 0.59 0.12A1.28 1.28 0 0 0 28 39.36a0.16 0.16 0 0 1 0.23-0.06 0.17 0.17 0 0 1 0.06 0.23 1.59 1.59 0 0 1-1.5 0.68 2.94 2.94 0 0 1-0.66-0.14 1.27 1.27 0 0 0-0.92 0c-0.32 0.14-1.73 0.63-1.79 0.65Z" fill="#39cccc" data-fill-palette-color="accent"></path><path d="M25.85 35.69h-0.07a1.44 1.44 0 0 1 0.32-2.6 1.81 1.81 0 0 1 1.61 0.3 1.29 1.29 0 0 1 0.35 1.22 1.25 1.25 0 0 1-1.07 0.88 0.18 0.18 0 0 1-0.2-0.14 0.17 0.17 0 0 1 0.13-0.2 0.87 0.87 0 0 0 0.57-1.5 1.5 1.5 0 0 0-1.3-0.23 1 1 0 0 0-0.7 0.69 1 1 0 0 0 0.43 1.27 0.16 0.16 0 0 1 0.09 0.22A0.18 0.18 0 0 1 25.85 35.69Z" fill="#39cccc" data-fill-palette-color="accent"></path><path d="M28.69 44.44A0.93 0.93 0 0 1 28 44.1l-1.17-0.64-0.46 0.45a0.18 0.18 0 0 1-0.14 0 0.22 0.22 0 0 1-0.13-0.08l-0.44-0.77a0.55 0.55 0 0 0-0.38-0.4 2.44 2.44 0 0 1-0.46-0.25 6.32 6.32 0 0 1-1.41-1.62l-0.31-0.32a0.19 0.19 0 0 1-0.05-0.14c0.22-2.18 0.6-4.06 3.13-5.08a4.07 4.07 0 0 1 3.28 0.49 0.16 0.16 0 0 1 0.06 0.23 0.17 0.17 0 0 1-0.23 0.06 3.77 3.77 0 0 0-3-0.46c-2.32 0.93-2.69 2.61-2.9 4.72l0.28 0.29A6.32 6.32 0 0 0 25 42.17a2.9 2.9 0 0 0 0.41 0.22A0.83 0.83 0 0 1 26 43l0.32 0.55 0.4-0.38a0.17 0.17 0 0 1 0.19 0l1.32 0.72a0.09 0.09 0 0 1 0.06 0.06 0.56 0.56 0 0 0 0.44 0.22c0.25 0 0.51-0.3 0.74-0.8a0.69 0.69 0 0 1 0.42-0.32 0.9 0.9 0 0 1 0.7 0.16 9.27 9.27 0 0 0 2.13 0.66 0.17 0.17 0 0 1 0.14 0.2 0.17 0.17 0 0 1-0.2 0.13 8.94 8.94 0 0 1-2.25-0.7 0.58 0.58 0 0 0-0.43-0.11 0.35 0.35 0 0 0-0.21 0.14c-0.28 0.61-0.63 0.95-1 1Z" fill="#39cccc" data-fill-palette-color="accent"></path><path d="M31.36 40.16a1.2 1.2 0 0 1-0.47-0.11 1.69 1.69 0 0 1-0.69-0.53 0.82 0.82 0 0 0-0.46-0.29 1.12 1.12 0 0 0-0.57 0 0.17 0.17 0 0 1-0.21-0.11 0.16 0.16 0 0 1 0.1-0.21 1.42 1.42 0 0 1 0.75 0 1.19 1.19 0 0 1 0.65 0.42 1.69 1.69 0 0 0 0.56 0.43c0.22 0.09 0.39 0.11 0.45 0 0.21-0.21-0.24-1.4-0.38-1.79a4.62 4.62 0 0 0-1.78-1.93 0.17 0.17 0 0 1-0.06-0.23 0.17 0.17 0 0 1 0.23-0.07 4.92 4.92 0 0 1 1.93 2.11c0.42 1.13 0.61 1.85 0.3 2.15A0.48 0.48 0 0 1 31.36 40.16Z" fill="#39cccc" data-fill-palette-color="accent"></path><path d="M79 65.05a0.49 0.49 0 0 1-0.14 0 0.37 0.37 0 0 1-0.24-0.26 0.57 0.57 0 0 1 0.14-0.48 0.81 0.81 0 0 1 0.83-0.31 0.18 0.18 0 0 1 0.11 0.22 0.16 0.16 0 0 1-0.21 0.11 0.46 0.46 0 0 0-0.46 0.19c-0.09 0.12-0.08 0.18-0.08 0.19a0.37 0.37 0 0 0 0.37-0.13 0.16 0.16 0 0 1 0.13-0.06h0.37c0.47 0 1-0.84 1.24-2a2.68 2.68 0 0 1 1.14-1.73 4.47 4.47 0 0 0 0.41-0.35 1 1 0 0 0 0.3-0.93 1.46 1.46 0 0 0-1.06-0.94A26 26 0 0 1 79 57.32c-7.21-4.19-8.47-4.31-9.39-4.4h0c-0.21 0-0.46 0-0.74 0A8 8 0 0 1 64.62 52a41.81 41.81 0 0 0-6.94-2.79h-0.06c-1.31-0.41-1.36-0.42-1.68-1a7.37 7.37 0 0 0-0.77-1.11c-1.2-1.49-2.06-1.51-4.63-1.57l-0.86 0c-3.16-0.09-3.65-0.42-4.84-1.21l-0.13-0.08a51.34 51.34 0 0 0-6.61-3.67A6.06 6.06 0 0 0 34 40.35a3.76 3.76 0 0 1-2.52-0.21 0.16 0.16 0 0 1-0.06-0.23 0.18 0.18 0 0 1 0.23-0.07 3.38 3.38 0 0 0 2.25 0.18 6.47 6.47 0 0 1 4.38 0.26A53.08 53.08 0 0 1 44.9 44l0.13 0.09c1.13 0.75 1.6 1.06 4.66 1.15l0.86 0c2.54 0.05 3.59 0.08 4.89 1.7a9.5 9.5 0 0 1 0.8 1.14c0.25 0.43 0.25 0.43 1.48 0.81l0.06 0a42.28 42.28 0 0 1 7 2.81 7.54 7.54 0 0 0 4 0.85c0.3 0 0.56 0 0.78 0h0.05c0.95 0.09 2.25 0.22 9.51 4.44A28 28 0 0 0 82 58.24a1.75 1.75 0 0 1 1.29 1.19 1.35 1.35 0 0 1-0.4 1.24 3.86 3.86 0 0 1-0.44 0.38 2.32 2.32 0 0 0-1 1.53c-0.32 1.42-1 2.34-1.63 2.25h-0.25A0.77 0.77 0 0 1 79 65.05Z" fill="#39cccc" data-fill-palette-color="accent"></path><path d="M77.56 59.71a0.16 0.16 0 0 1-0.12-0.05 0.18 0.18 0 0 1 0-0.24 2.57 2.57 0 0 0 0.83-2.55 0.18 0.18 0 0 1 0.1-0.22 0.18 0.18 0 0 1 0.22 0.11 2.89 2.89 0 0 1-0.9 2.9A0.21 0.21 0 0 1 77.56 59.71Z" fill="#39cccc" data-fill-palette-color="accent"></path><path d="M30.66 65.37a0.45 0.45 0 0 1-0.25-0.09 0.38 0.38 0 0 1 0.16-0.65l1.71-0.39a0.17 0.17 0 0 1 0.21 0.13 0.17 0.17 0 0 1-0.13 0.2L30.65 65V65l1.54-0.11a0.16 0.16 0 0 1 0.18 0.15 0.17 0.17 0 0 1-0.16 0.19l-1.51 0.11Z" fill="#39cccc" data-fill-palette-color="accent"></path><path d="M29.82 65.19a0.42 0.42 0 0 1-0.41-0.37 0.41 0.41 0 0 1 0.32-0.43l2.12-0.5a0.16 0.16 0 0 1 0.2 0.12 0.17 0.17 0 0 1-0.12 0.21l-2.12 0.5a0.07 0.07 0 0 0-0.06 0.07 0.07 0.07 0 0 0 0.07 0.06h0.56a0.18 0.18 0 0 1 0.18 0.17 0.18 0.18 0 0 1-0.17 0.17Z" fill="#39cccc" data-fill-palette-color="accent"></path><path d="M32.38 65.41A0.36 0.36 0 0 1 32 65.1a0.38 0.38 0 0 1 0.23-0.39l1.29-0.45a0.16 0.16 0 0 1 0.22 0.1 0.18 0.18 0 0 1-0.1 0.22L32.37 65l1.68-0.16a9.23 9.23 0 0 0 2.12-0.22 2 2 0 0 0 0.23-1.1c0-0.74 0.09-3 0.21-5.22 0.11-2 0.21-3.86 0.18-4.38 0-0.32 0-0.51 0-0.66a6.46 6.46 0 0 1 0-1.6c0.14-1.5 0-7.66 0-7.72a0.18 0.18 0 0 1 0.17-0.18 0.16 0.16 0 0 1 0.17 0.17c0 0.25 0.14 6.24 0 7.76a5.9 5.9 0 0 0-0.05 1.53c0 0.16 0 0.35 0.05 0.69 0 0.53-0.07 2.42-0.18 4.41-0.12 2.19-0.24 4.46-0.21 5.19a1.9 1.9 0 0 1-0.39 1.4 8.63 8.63 0 0 1-2.27 0.27l-1.66 0.2Z" fill="#39cccc" data-fill-palette-color="accent"></path><path d="M39.21 50.26a0.21 0.21 0 0 1-0.12 0 0.17 0.17 0 0 1 0-0.24s1.52-1.52 2.77-2.95a9.31 9.31 0 0 0 1.71-3.62 0.17 0.17 0 0 1 0.33 0.07 9.45 9.45 0 0 1-1.79 3.78c-1.26 1.43-2.76 2.94-2.78 3A0.17 0.17 0 0 1 39.21 50.26Z" fill="#39cccc" data-fill-palette-color="accent"></path><path d="M29.82 64.59a0.17 0.17 0 0 1 0-0.33l1.7-0.43 1.08-0.12c0.28 0 1.88-0.32 1.9-0.32s0.06 0 0.1-0.07c0.32-0.46 0-2.42-0.35-4.16a25.77 25.77 0 0 1-0.27-4.9 3.82 3.82 0 0 0-0.13-1.91 6.64 6.64 0 0 1-0.23-1c-0.08-0.49-0.14-1.11-0.19-1.78a14.81 14.81 0 0 0-0.34-2.5L33 47A8.74 8.74 0 0 1 32.51 44a2.63 2.63 0 0 1 0.59-1.69 2 2 0 0 1 1-0.67 3.57 3.57 0 0 1 4 1.22c0.78 1 1.1 2.33 0.72 3A2 2 0 0 1 37 46.93a0.18 0.18 0 0 1-0.16-0.19 0.18 0.18 0 0 1 0.19-0.15 1.66 1.66 0 0 0 1.52-1 2.88 2.88 0 0 0-0.69-2.6 3.24 3.24 0 0 0-3.66-1.11 1.7 1.7 0 0 0-0.85 0.56A2.29 2.29 0 0 0 32.85 44a8.31 8.31 0 0 0 0.5 3l0 0.1a14.92 14.92 0 0 1 0.35 2.57c0.05 0.66 0.1 1.28 0.18 1.76a8.51 8.51 0 0 0 0.22 0.9 4.07 4.07 0 0 1 0.15 2 25.74 25.74 0 0 0 0.27 4.8c0.19 0.84 0.8 3.68 0.29 4.42a0.48 0.48 0 0 1-0.33 0.21c-0.06 0-1.62 0.3-1.92 0.32l-1.05 0.12-1.68 0.42Z" fill="#39cccc" data-fill-palette-color="accent"></path><path d="M32.77 43.45h0a0.16 0.16 0 0 1-0.15-0.18A3.26 3.26 0 0 1 34 40.85c1-0.56 2.31-0.46 4 0.31 0.37 0.19 1 0.4 1.17 0.26s0.07-0.27 0-0.39a0.17 0.17 0 0 1 0.13-0.2 0.18 0.18 0 0 1 0.21 0.13 0.67 0.67 0 0 1-0.17 0.73c-0.43 0.33-1.35-0.12-1.53-0.22-1.54-0.72-2.77-0.83-3.64-0.32a3 3 0 0 0-1.26 2.15A0.17 0.17 0 0 1 32.77 43.45Z" fill="#39cccc" data-fill-palette-color="accent"></path><path d="M47.38 51.89a0.16 0.16 0 0 1-0.16-0.14 10.69 10.69 0 0 1 1.12-6.51 0.17 0.17 0 0 1 0.3 0.16 10.68 10.68 0 0 0-1.09 6.29 0.17 0.17 0 0 1-0.13 0.2Z" fill="#39cccc" data-fill-palette-color="accent"></path></svg></g></svg></g><g><rect width="106.8691972754442" height="2.9074445942678855" y="85.20416435867064" x="288.6508027245558" fill="#39cccc" data-fill-palette-color="accent"></rect><rect width="106.8691972754442" height="2.9074445942678855" y="85.20416435867064" x="0" fill="#39cccc" data-fill-palette-color="accent"></rect><rect width="106.8691972754442" height="2.9074445942678855" y="79.38927517013487" x="288.6508027245558" fill="#39cccc" data-fill-palette-color="accent"></rect><rect width="106.8691972754442" height="2.9074445942678855" y="79.38927517013487" x="0" fill="#39cccc" data-fill-palette-color="accent"></rect></g></svg></g></svg><rect width="395.52" height="128.96281052606167" fill="none" stroke="none" visibility="hidden"></rect></g></svg></g></svg>